# xmcd CD database file
#
# Track frame offsets:
#	150
#	38924
#	85496
#	175238
#	196513
#	227837
#	251392
#	267156
#	287288
#
# Disc length: 4299 seconds
#
# Revision: 0
# Processed by: cddbd v1.5.2PL0 Copyright (c) Steve Scherf et al.
# Submitted via: CDex 1.70beta2
#
DISCID=6d10c909
DTITLE=Mann, Herbie - At the Village Gate - Brazil Bossa Nova Blues
DYEAR=1962
DGENRE=Jazz
TTITLE0=Comin' Home Baby
TTITLE1=Summertime
TTITLE2=It Ain't Necessarily
TTITLE3=Brazil
TTITLE4=Copacabana
TTITLE5=Minha Saudade
TTITLE6=B. N. Blues
TTITLE7=One Note Samba
TTITLE8=Me Faz Recorar
EXTD=YEAR: 1962
EXTT0=
EXTT1=
EXTT2=
EXTT3=
EXTT4=
EXTT5=
EXTT6=
EXTT7=
EXTT8=
PLAYORDER=
